<svg version="1.0" xmlns="http://www.w3.org/2000/svg"
 width="165pt" height="116pt" viewBox="0 0 165 116" id="YouTobePlay">

<g transform="translate(0,116) scale(0.1,-0.1)"   fill="var(--fill, #ccc)"  stroke="blue">
<path d="M425 1150 c-205 -8 -234 -13 -292 -46 -49 -28 -86 -95 -105 -189 -17
-84 -17 -579 1 -665 26 -131 68 -189 156 -216 106 -32 918 -42 1197 -14 144
14 204 62 235 187 20 79 29 503 14 640 -12 113 -40 199 -74 231 -56 52 -100
61 -349 72 -255 11 -506 11 -783 0z m475 -410 c126 -69 229 -129 229 -135 1
-9 -456 -265 -472 -265 -4 0 -7 120 -7 266 0 184 3 265 11 262 6 -2 113 -60
239 -128z"/>
</g>
</svg>
